<svg width="19" height="19" viewBox="0 0 19 19" fill="none" xmlns="http://www.w3.org/2000/svg">
<g clip-path="url(#clip0_212_639)">
<path d="M19 9.5C19 12.0196 17.9991 14.4359 16.2175 16.2175C14.4359 17.9991 12.0196 19 9.5 19C6.98044 19 4.56408 17.9991 2.78249 16.2175C1.00089 14.4359 0 12.0196 0 9.5C0 6.98044 1.00089 4.56408 2.78249 2.78249C4.56408 1.00089 6.98044 0 9.5 0C12.0196 0 14.4359 1.00089 16.2175 2.78249C17.9991 4.56408 19 6.98044 19 9.5ZM9.5 4.15625C9.5 3.99878 9.43744 3.84776 9.32609 3.73641C9.21474 3.62506 9.06372 3.5625 8.90625 3.5625C8.74878 3.5625 8.59776 3.62506 8.48641 3.73641C8.37506 3.84776 8.3125 3.99878 8.3125 4.15625V10.6875C8.31253 10.7922 8.34023 10.8949 8.39278 10.9855C8.44533 11.076 8.52087 11.151 8.61175 11.2029L12.768 13.5779C12.9044 13.6516 13.0642 13.669 13.2133 13.6265C13.3624 13.5839 13.4889 13.4847 13.5658 13.3501C13.6427 13.2155 13.664 13.0561 13.6249 12.9061C13.5859 12.756 13.4898 12.6272 13.357 12.5471L9.5 10.3431V4.15625Z" fill="white"/>
</g>
<defs>
<clipPath id="clip0_212_639">
<rect width="19" height="19" fill="white"/>
</clipPath>
</defs>
</svg>
