<svg width="30" height="30" viewBox="0 0 30 30" fill="none" xmlns="http://www.w3.org/2000/svg">
<path d="M15 30C21.2137 30 26.25 26.25 26.25 19.6875C26.25 16.875 25.3125 12.1875 21.5625 8.4375C22.0312 11.25 19.2188 12.1875 19.2188 12.1875C20.625 7.5 16.875 0.9375 11.25 0C11.9194 3.75 12.1875 7.5 7.5 11.25C5.15625 13.125 3.75 16.3669 3.75 19.6875C3.75 26.25 8.78625 30 15 30ZM15 28.125C11.8931 28.125 9.375 26.25 9.375 22.9688C9.375 21.5625 9.84375 19.2188 11.7188 17.3438C11.4844 18.75 13.125 19.6875 13.125 19.6875C12.4219 17.3438 14.0625 13.5938 16.875 13.125C16.5394 15 16.4062 16.875 18.75 18.75C19.9219 19.6875 20.625 21.3075 20.625 22.9688C20.625 26.25 18.1069 28.125 15 28.125Z" fill="white"/>
</svg>
