<svg width="22" height="22" viewBox="0 0 22 22" fill="none" xmlns="http://www.w3.org/2000/svg">
<path d="M13.9772 14.7675L15.5172 13.2275C15.7247 13.0227 15.9871 12.8825 16.2727 12.8239C16.5582 12.7653 16.8547 12.7909 17.126 12.8975L19.0029 13.6469C19.277 13.7582 19.5121 13.9482 19.6785 14.1928C19.8449 14.4375 19.9352 14.726 19.9379 15.0219V18.4594C19.9363 18.6607 19.894 18.8596 19.8135 19.0441C19.733 19.2286 19.616 19.3949 19.4696 19.533C19.3231 19.6711 19.1502 19.7781 18.9613 19.8476C18.7724 19.9172 18.5714 19.9477 18.3704 19.9375C5.21849 19.1194 2.56474 7.9819 2.06287 3.7194C2.03957 3.51008 2.06086 3.2982 2.12532 3.0977C2.18979 2.8972 2.29599 2.71262 2.43691 2.55611C2.57784 2.3996 2.75031 2.27469 2.94298 2.18962C3.13564 2.10455 3.34413 2.06124 3.55474 2.06253H6.87537C7.17169 2.06341 7.46097 2.15291 7.706 2.31954C7.95104 2.48616 8.14062 2.72228 8.25037 2.99753L8.99974 4.8744C9.10992 5.14464 9.13802 5.44134 9.08056 5.72746C9.02309 6.01358 8.88259 6.27642 8.67662 6.48315L7.13662 8.02315C7.13662 8.02315 8.02349 14.025 13.9772 14.7675Z" fill="#F58B06"/>
</svg>
