<svg width="15" height="19" viewBox="0 0 15 19" fill="none" xmlns="http://www.w3.org/2000/svg">
<path d="M7.46429 0C5.48536 0.00233461 3.58814 0.789498 2.18882 2.18882C0.789506 3.58814 0.00234255 5.48535 7.94124e-06 7.46429C-0.00236224 9.08147 0.525888 10.6548 1.50372 11.9429C1.50372 11.9429 1.70729 12.2109 1.74054 12.2496L7.46429 19L13.1908 12.2462C13.2206 12.2102 13.4249 11.9429 13.4249 11.9429L13.4255 11.9408C14.4029 10.6533 14.9309 9.08073 14.9286 7.46429C14.9262 5.48535 14.1391 3.58814 12.7398 2.18882C11.3404 0.789498 9.44323 0.00233461 7.46429 0ZM7.46429 10.1786C6.92746 10.1786 6.40268 10.0194 5.95632 9.72113C5.50996 9.42288 5.16206 8.99897 4.95662 8.503C4.75118 8.00703 4.69743 7.46127 4.80216 6.93475C4.90689 6.40823 5.1654 5.9246 5.545 5.545C5.9246 5.1654 6.40824 4.90689 6.93476 4.80215C7.46128 4.69742 8.00703 4.75117 8.50301 4.95661C8.99898 5.16205 9.42289 5.50995 9.72114 5.95631C10.0194 6.40267 10.1786 6.92745 10.1786 7.46429C10.1777 8.18388 9.89142 8.87375 9.38259 9.38258C8.87376 9.89142 8.18389 10.1777 7.46429 10.1786Z" fill="white"/>
</svg>
