<svg width="29" height="34" viewBox="0 0 29 34" fill="none" xmlns="http://www.w3.org/2000/svg">
<path d="M13.7812 0.223145C10.2305 2.20596 6.27891 3.28174 1.42031 3.60518C0.597656 3.66143 0.330469 3.78096 0.126562 4.1958C0.00703125 4.4208 0 4.85674 0 10.1372C0 13.3997 0.0351562 16.1911 0.0703125 16.6763C0.28125 19.1021 0.850781 21.1481 1.93359 23.356C4.23281 28.0388 8.34609 31.6036 13.4227 33.2981C13.8937 33.4528 14.3438 33.5864 14.4141 33.5864C14.625 33.5864 16.1789 33.045 17.0648 32.6724C20.6156 31.1536 23.8219 28.4185 25.9172 25.1349C27.0211 23.4122 27.9844 21.0567 28.3992 19.0669C28.7859 17.2247 28.793 17.1122 28.793 10.4396C28.793 4.28721 28.793 4.27315 28.6453 4.07627C28.3781 3.71768 28.1742 3.6544 26.9648 3.57002C22.5844 3.26064 18.3164 2.08643 15.3773 0.391895C14.5547 -0.0862312 14.3648 -0.107323 13.7812 0.223145ZM15.4758 1.81221C18.6258 3.34502 21.6281 4.2169 25.1297 4.61065C26.5289 4.77236 26.7891 4.8708 27.2109 5.37002C27.6539 5.91143 27.6469 5.82705 27.6117 11.5997C27.5836 17.056 27.5766 17.1755 27.2461 18.7716C26.7398 21.2114 25.6359 23.6231 24.0398 25.7606C23.3297 26.7099 21.5227 28.4958 20.5312 29.2411C19.0688 30.331 17.4727 31.2028 15.75 31.8638C14.5898 32.3067 14.2664 32.3138 13.2117 31.913C11.2641 31.1747 9.63281 30.2677 8.01562 29.0302C7.19297 28.3974 5.41406 26.5974 4.78828 25.7606C2.96016 23.3138 1.87031 20.7403 1.38516 17.731C1.25156 16.8802 1.2375 16.4724 1.21641 11.5997C1.18125 5.74268 1.17422 5.86221 1.66641 5.31377C2.07422 4.86377 2.34844 4.7583 3.47344 4.6458C6.89062 4.29424 10.2164 3.35205 13.2117 1.88252C13.8727 1.55908 13.9922 1.52393 14.4141 1.52393C14.8148 1.52393 14.9625 1.56611 15.4758 1.81221Z" fill="white"/>
<path d="M13.395 3.11301C10.6528 4.46301 7.25671 5.42629 3.88171 5.80598C2.89733 5.91145 2.70749 5.95364 2.58093 6.08723L2.42624 6.24192L2.40515 10.756C2.38405 15.4739 2.42624 16.7466 2.67233 18.1036C3.4528 22.4419 6.10358 26.3935 9.93561 28.9247C11.2856 29.8177 13.8872 31.02 14.4567 31.006C14.963 30.9919 17.3466 29.9091 18.5841 29.1286C22.4583 26.6818 25.1864 22.8146 26.0794 18.4693C26.3887 16.9857 26.4028 16.6833 26.4028 11.3536V6.24192L26.2481 6.0802C26.1145 5.94661 25.9387 5.91145 24.9473 5.79895C21.5231 5.41926 17.9512 4.3927 15.1106 2.96535C14.8364 2.82473 14.5341 2.71926 14.4005 2.72629C14.2739 2.72629 13.8239 2.90207 13.395 3.11301ZM14.9489 7.91536C15.1036 7.98567 15.2934 8.12629 15.3708 8.2177C15.4481 8.31614 15.9122 9.15989 16.4114 10.095C16.9036 11.0232 17.3395 11.8036 17.3676 11.8247C17.4028 11.8458 18.3028 11.9865 19.3645 12.1411C20.4333 12.2958 21.3966 12.4646 21.502 12.5208C21.8817 12.7177 22.2192 13.245 22.2192 13.6318C22.2192 14.1591 22.0997 14.3208 20.595 15.8325C19.6036 16.831 19.1255 17.3654 19.1255 17.4638C19.1255 17.5482 19.2661 18.4341 19.4419 19.4325C19.6176 20.431 19.7583 21.3802 19.7583 21.549C19.7583 22.2943 19.0762 22.8497 18.2958 22.7372C18.1411 22.7232 17.2903 22.2943 16.2286 21.7107L14.4216 20.7193L12.6075 21.7107C10.7794 22.7091 10.5051 22.8216 10.02 22.7302C9.73874 22.674 9.3239 22.3435 9.16921 22.0482C9.01452 21.7458 9.04265 21.3943 9.38718 19.4325C9.56296 18.4341 9.70358 17.5482 9.70358 17.4638C9.70358 17.3654 9.23952 16.8521 8.26921 15.8677C6.82077 14.4193 6.60983 14.145 6.60983 13.688C6.60983 13.245 6.92624 12.7318 7.32702 12.5208C7.43249 12.4646 8.39577 12.2958 9.46452 12.1411C10.5262 11.9865 11.4262 11.8458 11.4614 11.8247C11.4895 11.8036 11.9255 11.0232 12.4176 10.095C12.9169 9.15989 13.3809 8.31614 13.4583 8.2177C13.6341 7.99973 14.0981 7.78176 14.4145 7.78176C14.5481 7.78176 14.7872 7.84504 14.9489 7.91536Z" fill="white"/>
<path d="M13.3595 10.8824C12.804 11.9301 12.2767 12.8371 12.1923 12.8863C12.115 12.9426 11.1376 13.1113 9.97746 13.2801C8.8384 13.4348 7.88215 13.5965 7.84699 13.6246C7.81183 13.6527 8.5009 14.4051 9.3798 15.291C10.7439 16.6762 10.9689 16.9293 10.9689 17.1121C10.9689 17.2316 10.8142 18.2371 10.6173 19.3551C10.4275 20.473 10.2657 21.4293 10.2657 21.4785C10.2657 21.6191 10.2868 21.6051 12.3821 20.473C13.4087 19.9105 14.3298 19.4535 14.4212 19.4535C14.5056 19.4535 15.4618 19.9316 16.5376 20.5152C17.6134 21.0988 18.5134 21.5629 18.5415 21.5418C18.5626 21.5207 18.415 20.5574 18.2181 19.4043C18.0212 18.2512 17.8595 17.2176 17.8595 17.1051C17.8595 16.9293 18.1056 16.648 19.4556 15.291C20.4189 14.3207 21.0236 13.6598 20.9814 13.6246C20.9462 13.5894 19.9829 13.4277 18.8439 13.273C17.7048 13.1113 16.7064 12.9355 16.629 12.8863C16.5517 12.8371 16.0314 11.9371 15.4759 10.8824C14.9204 9.83476 14.4423 8.97694 14.4212 8.97694C14.3931 8.97694 13.922 9.83476 13.3595 10.8824Z" fill="white"/>
</svg>
