<svg width="40" height="40" viewBox="0 0 40 40" fill="none" xmlns="http://www.w3.org/2000/svg">
<path d="M2.99235 9.25781C2.47673 9.47656 2.50016 9.17188 2.50016 16.1719V22.5H13.3205H24.1408V16.1094C24.1408 9.02344 24.172 9.47656 23.6252 9.25C23.2345 9.08594 3.36735 9.09375 2.99235 9.25781Z" fill="white"/>
<path d="M25.8594 13.3125V14.1406H29.1094H32.3516L32.1328 13.7422C31.8984 13.2969 31.5469 12.9766 31.0156 12.7188C30.6797 12.5469 30.5703 12.5391 28.2656 12.5156L25.8594 12.4922V13.3125Z" fill="white"/>
<path d="M25.8594 22.5V29.1484L26.7266 29.125L27.5859 29.1016L27.7422 28.6406C28.125 27.5156 29.0078 26.6016 30.1797 26.1094C30.5625 25.9531 30.8438 25.9062 31.4844 25.875C32.2188 25.8437 32.3672 25.8594 32.9219 26.0469C33.9453 26.3906 34.7188 27.0078 35.2656 27.9141C35.4141 28.1641 35.5781 28.5469 35.6328 28.7578L35.7344 29.1406H36.2969C36.9609 29.1406 37.1875 29.0547 37.3672 28.75C37.4844 28.5625 37.5 28.2422 37.5 26.3359V24.1484L33.3828 24.125L29.2578 24.1016L28.9219 23.9219C28.4062 23.6484 27.9922 23.2344 27.7578 22.75L27.5391 22.3047L27.5156 19.0781L27.4922 15.8594H26.6797H25.8594V22.5Z" fill="white"/>
<path d="M29.1406 18.7891C29.1406 22.0156 29.1562 22.1484 29.6016 22.375C29.8047 22.4844 30.3438 22.5 33.6719 22.5H37.5156L37.4844 21.4062L37.4609 20.3125L35.2344 18.0859L33.0078 15.8594H31.0781H29.1406V18.7891Z" fill="white"/>
<path d="M2.5 26.3359C2.5 28.7188 2.52344 28.8672 2.94531 29.0547C3.05469 29.1094 3.6875 29.1406 4.52344 29.1406H5.91406L6.00781 28.8047C6.40625 27.4766 7.59375 26.3281 8.94531 25.9766C9.53906 25.8281 10.4609 25.8281 11.0547 25.9766C12.4062 26.3281 13.5938 27.4766 13.9922 28.8047L14.0859 29.1406H19.1172H24.1406V26.6406V24.1406H13.3203H2.5V26.3359Z" fill="white"/>
<path d="M9.41416 27.5703C8.69541 27.7578 8.0626 28.2734 7.73447 28.9453C7.46885 29.4844 7.46104 30.4922 7.71885 31.0156C7.98447 31.5703 8.30479 31.9063 8.84385 32.1953C9.29697 32.4375 9.39072 32.4609 10.0001 32.4531C10.5626 32.4531 10.7267 32.4219 11.0626 32.25C11.6485 31.9375 11.8985 31.7031 12.1954 31.1563C12.4376 30.7031 12.461 30.6094 12.461 30C12.461 29.3906 12.4376 29.2969 12.1954 28.8438C11.7501 28.0313 11.0704 27.5938 10.1642 27.5391C9.88291 27.5234 9.54697 27.5313 9.41416 27.5703Z" fill="white"/>
<path d="M30.9769 27.6016C30.4613 27.7734 30.2034 27.9375 29.8675 28.3047C29.4613 28.7422 29.3363 28.9844 29.2191 29.5469C29.0003 30.6406 29.6097 31.7969 30.6644 32.2812C31.2581 32.5547 32.1566 32.5391 32.7503 32.2422C33.2347 32.0078 33.6488 31.5937 33.9222 31.0781C34.0706 30.7969 34.1019 30.625 34.1019 30C34.1019 29.1719 33.9847 28.8516 33.4691 28.2812C32.8988 27.6562 31.7659 27.3437 30.9769 27.6016Z" fill="white"/>
</svg>
